<?xml version="1.0" encoding="UTF-8" standalone="no"?>
<!-- Created with Inkscape (http://www.inkscape.org/) -->

<svg
   version="1.1"
   id="svg2"
   width="272"
   height="260"
   viewBox="0 0 272 260"
   xmlns="http://www.w3.org/2000/svg"
   xmlns:svg="http://www.w3.org/2000/svg">
  <defs
     id="defs6">
    <clipPath
       clipPathUnits="userSpaceOnUse"
       id="clipPath18">
      <path
         d="M 0,0 H 204 V 195 H 0 Z"
         id="path16" />
    </clipPath>
    <clipPath
       clipPathUnits="userSpaceOnUse"
       id="clipPath28">
      <path
         d="M 0,3.967795e-6 H 203.28 V 194.8921 H 0 Z"
         id="path26" />
    </clipPath>
    <clipPath
       clipPathUnits="userSpaceOnUse"
       id="clipPath40">
      <path
         d="M 0,3.967795e-6 H 204 V 195 H 0 Z"
         id="path38" />
    </clipPath>
    <clipPath
       clipPathUnits="userSpaceOnUse"
       id="clipPath50">
      <path
         d="M 0,3.967795e-6 H 203.28 V 194.8921 H 0 Z"
         id="path48" />
    </clipPath>
    <clipPath
       clipPathUnits="userSpaceOnUse"
       id="clipPath62">
      <path
         d="M 0,3.967795e-6 H 204 V 195 H 0 Z"
         id="path60" />
    </clipPath>
    <clipPath
       clipPathUnits="userSpaceOnUse"
       id="clipPath74">
      <path
         d="M 0,3.967795e-6 H 203.28 V 194.8921 H 0 Z"
         id="path72" />
    </clipPath>
    <clipPath
       clipPathUnits="userSpaceOnUse"
       id="clipPath86">
      <path
         d="M 0,3.967795e-6 H 204 V 195 H 0 Z"
         id="path84" />
    </clipPath>
    <clipPath
       clipPathUnits="userSpaceOnUse"
       id="clipPath98">
      <path
         d="M 0,3.967795e-6 H 203.28 V 194.8921 H 0 Z"
         id="path96" />
    </clipPath>
    <clipPath
       clipPathUnits="userSpaceOnUse"
       id="clipPath110">
      <path
         d="M 0,3.967795e-6 H 204 V 195 H 0 Z"
         id="path108" />
    </clipPath>
  </defs>
  <g
     id="g8"
     transform="matrix(1.3333333,0,0,-1.3333333,0,260)">
    <g
       id="g10" />
    <g
       id="g12">
      <g
         id="g14"
         clip-path="url(#clipPath18)">
        <path
           d="M 0,195 H 204 V 0 H 0 Z"
           style="fill:#ffffff;fill-opacity:1;fill-rule:nonzero;stroke:none"
           id="path20" />
      </g>
    </g>
    <g
       id="g22">
      <g
         id="g24"
         clip-path="url(#clipPath28)">
        <path
           d="m 163.793,36.43486 c -7.837,-7.83054 -7.837,-20.52706 0,-28.357602 7.838,-7.8305376 20.544,-7.8305376 28.382,0 7.837,7.830542 7.837,20.527062 0,28.357602 -7.838,7.83053 -20.544,7.83053 -28.382,0"
           style="fill:#0099ff;fill-opacity:1;fill-rule:nonzero;stroke:none"
           id="path30" />
        <path
           d="m 11.09,189.0129 c -7.846,-7.8395 -7.846,-20.55 0,-28.3895 7.846,-7.8396 20.566,-7.8396 28.413,0 7.845,7.8395 7.845,20.55 0,28.3895 -7.847,7.8386 -20.567,7.8386 -28.413,0"
           style="fill:#0099ff;fill-opacity:1;fill-rule:nonzero;stroke:none"
           id="path32" />
      </g>
    </g>
    <g
       id="g34">
      <g
         id="g36"
         clip-path="url(#clipPath40)">
        <path
           d="m 11.09,36.45084 c -7.846,-7.83953 -7.846,-20.55004 0,-28.388569 7.846,-7.8395308 20.566,-7.8395308 28.413,0 7.845,7.838529 7.845,20.549039 0,28.388569 -7.847,7.83953 -20.567,7.83953 -28.413,0"
           style="fill:#0099ff;fill-opacity:1;fill-rule:nonzero;stroke:none"
           id="path42" />
      </g>
    </g>
    <g
       id="g44">
      <g
         id="g46"
         clip-path="url(#clipPath50)">
        <path
           d="m 87.434,112.7319 c -7.846,-7.8395 -7.846,-20.55005 0,-28.38958 7.846,-7.83853 20.566,-7.83853 28.412,0 7.846,7.83953 7.846,20.55008 0,28.38958 -7.846,7.8395 -20.566,7.8395 -28.412,0"
           style="fill:#0099ff;fill-opacity:1;fill-rule:nonzero;stroke:none"
           id="path52" />
        <path
           d="m 163.778,189.0129 c -7.846,-7.8395 -7.846,-20.55 0,-28.3895 7.846,-7.8396 20.566,-7.8396 28.412,0 7.846,7.8395 7.846,20.55 0,28.3895 -7.846,7.8386 -20.566,7.8386 -28.412,0"
           style="fill:#0099ff;fill-opacity:1;fill-rule:nonzero;stroke:none"
           id="path54" />
      </g>
    </g>
    <g
       id="g56">
      <g
         id="g58"
         clip-path="url(#clipPath62)">
        <path
           d="m 121.731,174.8177 c 0,11.0868 -8.995,20.0744 -20.091,20.0744 -5.548,0 -10.57,-2.2472 -14.206,-5.8802 l -76.339,-76.276 c -0.002,-0.001 -0.004,-0.003 -0.005,-0.004 -7.846,-7.8395 -7.846,-20.55005 0,-28.38958 7.846,-7.83853 20.566,-7.83853 28.412,0 0.002,0.002 0.003,0.003 0.004,0.005 l 76.337,76.27308 c 3.637,3.633 5.888,8.6528 5.888,14.1973"
           style="fill:#3c3fed;fill-opacity:1;fill-rule:nonzero;stroke:none"
           id="path64" />
        <path
           d="m 198.074,98.53761 c 0,11.08589 -8.994,20.07339 -20.09,20.07339 -5.548,0 -10.57,-2.2471 -14.206,-5.8801 v 10e-4 L 87.438,36.45484 c -0.001,-0.002 -0.003,-0.003 -0.004,-0.004 -7.846,-7.83953 -7.846,-20.55004 0,-28.388569 7.846,-7.8395308 20.566,-7.8395308 28.413,0 0.001,9.99e-4 0.002,0.002 0.003,0.004 l 76.336,76.273053 c 3.638,3.633 5.888,8.65286 5.888,14.19829"
           style="fill:#3c3fed;fill-opacity:1;fill-rule:nonzero;stroke:none"
           id="path66" />
      </g>
    </g>
    <g
       id="g68">
      <g
         id="g70"
         clip-path="url(#clipPath74)">
        <path
           d="m 13.968,-79.73827 c 5.564,0 8.626,2.00235 8.626,6.28281 0,4.0037 -2.95,5.72728 -8.626,5.72728 H 8.236 v -12.01009 z m -0.89,18.07108 c 5.231,0 7.457,2.11326 7.457,5.39355 0,3.61302 -2.449,5.05983 -7.402,5.05983 H 8.236 V -61.66719 Z M 0,-44.87504 h 13.634 c 8.458,0 14.913,-2.50194 14.913,-10.17561 0,-3.83683 -2.114,-7.67266 -5.62,-8.95161 v -0.22281 c 4.452,-1.05613 7.679,-4.22552 7.679,-9.72997 0,-8.28517 -6.844,-12.122 -15.915,-12.122 H 0 v 41.202"
           style="fill:#000000;fill-opacity:1;fill-rule:nonzero;stroke:none"
           id="path76" />
        <path
           d="m 53.575,-72.25045 c 0,5.18372 -2.125,8.59191 -5.88,8.59191 -3.806,0 -5.881,-3.40819 -5.881,-8.59191 0,-5.23368 2.075,-8.59291 5.881,-8.59291 3.755,0 5.88,3.35923 5.88,8.59291 z m -19.174,0 c 0,9.18342 6.325,14.51602 13.294,14.51602 6.918,0 13.293,-5.3326 13.293,-14.51602 0,-9.18442 -6.375,-14.51702 -13.293,-14.51702 -6.969,0 -13.294,5.3326 -13.294,14.51702"
           style="fill:#000000;fill-opacity:1;fill-rule:nonzero;stroke:none"
           id="path78" />
      </g>
    </g>
    <g
       id="g80">
      <g
         id="g82"
         clip-path="url(#clipPath86)">
        <path
           d="m 66.379,-46.67256 h 7.265 v -9.92581 l -0.346,-5.18472 c 2.174,2.07429 4.942,4.04866 8.697,4.04866 5.98,0 8.551,-4.14758 8.551,-11.10883 v -17.23378 h -7.265 v 16.34451 c 0,4.29546 -1.186,5.77723 -3.904,5.77723 -2.224,0 -3.707,-1.0871 -5.733,-3.11143 v -19.01031 h -7.265 v 39.40448"
           style="fill:#000000;fill-opacity:1;fill-rule:nonzero;stroke:none"
           id="path88" />
        <path
           d="m 97.299,-58.42486 h 5.931 l 0.543,-4.88797 h 0.148 c 2.027,3.60403 4.992,5.5784 7.858,5.5784 1.533,0 2.422,-0.2458 3.213,-0.59151 l -1.186,-6.27183 c -0.989,0.29676 -1.78,0.44564 -2.965,0.44564 -2.126,0 -4.695,-1.43282 -6.277,-5.43252 v -16.49239 h -7.265 v 27.65218"
           style="fill:#000000;fill-opacity:1;fill-rule:nonzero;stroke:none"
           id="path90" />
      </g>
    </g>
    <g
       id="g92">
      <g
         id="g94"
         clip-path="url(#clipPath98)">
        <path
           d="m 118.43,-58.42486 h 7.265 v -27.65218 h -7.265 z m -0.544,8.44303 c 0,2.37005 1.631,3.95074 4.201,3.95074 2.471,0 4.201,-1.58069 4.201,-3.95074 0,-2.419 -1.73,-3.94974 -4.201,-3.94974 -2.57,0 -4.201,1.53074 -4.201,3.94974"
           style="fill:#000000;fill-opacity:1;fill-rule:nonzero;stroke:none"
           id="path100" />
        <path
           d="m 132.282,-75.65764 v 17.23278 h 7.215 v -16.34451 c 0,-4.29546 1.235,-5.77723 3.954,-5.77723 2.223,0 3.706,0.98818 5.583,3.45714 v 18.6646 h 7.265 v -27.65218 h -5.93 l -0.544,3.9997 h -0.197 c -2.372,-2.81468 -4.991,-4.69013 -8.797,-4.69013 -5.98,0 -8.549,4.14758 -8.549,11.10983"
           style="fill:#000000;fill-opacity:1;fill-rule:nonzero;stroke:none"
           id="path102" />
      </g>
    </g>
    <g
       id="g104">
      <g
         id="g106"
         clip-path="url(#clipPath110)">
        <path
           d="m 163.201,-58.42486 h 5.931 l 0.543,-3.70294 h 0.149 c 2.322,2.419 4.893,4.39337 8.5,4.39337 3.953,0 6.276,-1.77653 7.561,-4.83901 2.57,2.6668 5.287,4.83901 8.846,4.83901 5.881,0 8.549,-4.14758 8.549,-11.10883 v -17.23378 h -7.215 v 16.34451 c 0,4.29546 -1.236,5.77723 -3.854,5.77723 -1.582,0 -3.36,-0.98718 -5.337,-3.11143 v -19.01031 h -7.216 v 16.34451 c 0,4.29546 -1.235,5.77723 -3.904,5.77723 -1.582,0 -3.36,-0.98718 -5.288,-3.11143 v -19.01031 h -7.265 v 27.65218"
           style="fill:#000000;fill-opacity:1;fill-rule:nonzero;stroke:none"
           id="path112" />
      </g>
    </g>
  </g>
</svg>
